<svg id="Layer_1" enable-background="new 0 0 510.679 510.679" height="512" viewBox="0 0 510.679 510.679" width="512" xmlns="http://www.w3.org/2000/svg"><g><g><g><path d="m388.331 133.168c-1.229-4.127-3.559-7.622-6.57-10.27 4.56-3.618 7.494-9.196 7.494-15.47 0-10.908-8.842-19.75-19.75-19.75-1.411 0-2.785.154-4.112.435 4.932-13.364.774-28.908-11.226-37.858-14.195-10.588-34.115-8.044-45.229 5.51-.828.264-1.62.588-2.378.962-2.479-2.873-5.506-5.356-9.041-7.269-11.061-5.985-24.07-4.812-33.726 1.924-.116-.531-.246-1.061-.404-1.59-3.483-11.696-15.787-18.354-27.482-14.871-11.473 3.416-18.091 15.321-15.052 26.814-4.04-.403-8.224-.049-12.356 1.182-13.88 4.133-22.882 16.802-22.987 30.567-.455.105-.909.219-1.362.354-11.696 3.483-18.354 15.787-14.871 27.483.039.132.086.261.128.392-5.895 2.832-10.987 7.475-14.338 13.667-6.047 11.175-4.791 24.341 2.13 34.026-3.991 4.2-5.697 10.349-3.926 16.3 2.493 8.374 10.961 13.327 19.363 11.61-5.146 7.688-6.955 17.525-4.109 27.084 3.607 12.112 13.715 20.506 25.378 22.519-1.772 4.453-2.12 9.509-.646 14.459 3.482 11.695 15.787 18.354 27.482 14.871 4.181-1.245 7.713-3.621 10.373-6.69 2.62 3.3 5.935 6.138 9.876 8.271 10.767 5.826 23.382 4.875 32.951-1.393 5.487 6.577 14.553 9.629 23.282 7.03 8.775-2.613 14.714-10.192 15.662-18.754 5.451 1.396 11.338 1.382 17.124-.341 13.388-3.987 22.236-15.917 22.94-29.111 3.063.955 6.432 1.042 9.738.058 8.854-2.636 13.895-11.952 11.258-20.806-1.03-3.459-3.087-6.324-5.73-8.388-.019-.038-.035-.079-.055-.116 6.293-2.779 11.751-7.581 15.278-14.1 6.237-11.527 4.7-25.169-2.805-34.927 7.036-5.42 10.384-14.795 7.698-23.814z" fill="#75b357"/><g><path d="m388.331 133.168c-1.229-4.127-3.559-7.622-6.57-10.27 4.56-3.618 7.494-9.196 7.494-15.47 0-10.908-8.842-19.75-19.75-19.75-1.411 0-2.785.154-4.112.435 4.932-13.364.774-28.908-11.226-37.858-12.086-9.015-28.321-8.504-39.739.212 11.791 8.981 15.859 24.383 10.964 37.646 1.327-.281 2.701-.435 4.112-.435 10.908 0 19.75 8.842 19.75 19.75 0 6.273-2.934 11.852-7.494 15.47 3.011 2.647 5.342 6.143 6.57 10.27 2.685 9.018-.663 18.394-7.696 23.813 7.506 9.759 9.042 23.401 2.805 34.927-3.527 6.519-8.985 11.321-15.278 14.1.02.038.035.078.055.116 2.643 2.064 4.7 4.93 5.73 8.388 2.636 8.854-2.404 18.17-11.259 20.806-3.306.984-6.675.897-9.738-.058-.704 13.194-9.552 25.124-22.94 29.111-5.786 1.723-11.672 1.737-17.124.341-.742 6.701-4.551 12.788-10.374 16.376 4.055-.802 7.945-2.369 11.43-4.651 5.487 6.577 14.553 9.629 23.282 7.03 8.775-2.613 14.714-10.192 15.662-18.754 5.451 1.396 11.338 1.382 17.124-.341 13.388-3.987 22.236-15.917 22.94-29.111 3.063.955 6.432 1.042 9.738.058 8.854-2.636 13.895-11.952 11.259-20.806-1.03-3.459-3.087-6.324-5.73-8.388-.019-.038-.035-.079-.055-.116 6.293-2.779 11.75-7.581 15.278-14.1 6.237-11.527 4.7-25.169-2.805-34.927 7.035-5.42 10.383-14.795 7.697-23.814z" fill="#63a642"/></g><g><path d="m306.336 456.095-87.216 29.28-140.514-418.543c-8.086-24.084 4.884-50.163 28.968-58.248 24.084-8.086 50.163 4.884 58.248 28.968z" fill="#ffe1ad"/><path d="m165.822 37.551c-8.086-24.084-34.164-37.053-58.248-28.968-1.857.624-3.639 1.366-5.36 2.194 10.761 5.198 19.504 14.55 23.608 26.774l140.513 418.543-51.268 17.212 4.052 12.068 87.216-29.28z" fill="#f7d394"/></g><circle cx="308.556" cy="137.835" fill="#fc6565" r="38.333"/><path d="m308.556 99.501c-7.33 0-14.177 2.06-20 5.628 10.996 6.739 18.333 18.864 18.333 32.705s-7.338 25.966-18.333 32.705c5.823 3.569 12.67 5.628 20 5.628 21.171 0 38.333-17.162 38.333-38.333s-17.163-38.333-38.333-38.333z" fill="#fc3f3f"/><circle cx="385.222" cy="152.835" fill="#fc6565" r="38.333"/><path d="m385.222 114.501c-7.33 0-14.177 2.06-20 5.628 10.996 6.739 18.333 18.864 18.333 32.705s-7.338 25.966-18.333 32.705c5.823 3.569 12.67 5.628 20 5.628 21.171 0 38.333-17.162 38.333-38.333s-17.162-38.333-38.333-38.333z" fill="#fc3f3f"/><g><g><path d="m414.895 159.907-19.88-10-19.878 10-19.876-10-19.876 10-19.877-10-19.874 10-19.873-10-19.871 10-19.875-10-19.872 10-19.869-10-19.873 10-19.873-10-19.873 10-19.874-10-19.873 10-19.871-10v353.272h357.738v-353.272z" fill="#e6b869"/></g><g><path d="m414.895 159.907-19.88-10-19.878 10-19.876-10-19.876 10-19.877-10-19.874 10-19.873-10-19.871 10-19.875-10-19.872 10-19.869-10-19.873 10-19.873-10-19.873 10-19.874-10-19.873 10-19.871-10v353.272h357.738v-353.272z" fill="#e6b869"/></g><path d="m355.261 149.907v353.272l39.845-39.845v-313.427l-19.969 10z" fill="#ba8d3f"/><path d="m434.775 149.907v353.272l-39.846-39.845v-313.427l19.969 10z" fill="#c79f5b"/><g><path d="m279.82 335.195c-.15 70.156-68.147 107.891-68.147 107.891s-67.824-43.01-67.682-109.195 68.147-107.891 68.147-107.891 67.827 41.686 67.682 109.195z" fill="#c3ffaa"/><path d="m279.82 335.195c-.15 70.156-68.147 107.891-68.147 107.891s-67.824-43.01-67.682-109.195 68.147-107.891 68.147-107.891 67.827 41.686 67.682 109.195z" fill="#c3ffaa"/><path d="m212.138 226s-8.794 5.394-20.064 15.379c19.998 17.874 47.839 50.539 47.746 93.816-.095 44.372-27.327 75.768-47.334 92.858 10.834 9.733 19.187 15.034 19.187 15.034s67.997-37.735 68.147-107.891c.145-67.51-67.682-109.196-67.682-109.196z" fill="#a3f781"/><g fill="#88db60"><path d="m211.938 319.293.2-93.293s-30.525 18.724-50.716 50.986l50.457 42.355z"/><path d="m211.785 386.286-67.672-56.807c-.07 1.46-.119 2.928-.122 4.412-.142 66.185 67.682 109.195 67.682 109.195l.122-56.808z"/><path d="m211.938 319.293-.144 66.986 67.926-55.516c-.854-20.285-7.767-38.128-16.884-53.069z"/></g></g></g></g><g><path d="m262.836 277.693-28.883 23.606c4.525 13.759 9.937 39.042 1.199 65.888l44.567-36.425c-.853-20.284-7.766-38.128-16.883-53.069z" fill="#6ccf3c"/></g><g><path d="m212.061 262.19.077-36.19s-8.931 5.485-20.322 15.615c8.107 6.211 15.176 14.146 20.245 20.575z" fill="#6ccf3c"/></g><g><path d="m211.747 408.55c-3.262 3.891-10.256 11.738-19.474 19.311 10.937 9.855 19.399 15.225 19.399 15.225z" fill="#6ccf3c"/></g></g><g><path d="m144.905 40.633c-3.304-2.497-8.008-1.84-10.505 1.465l-27.749 36.743c-5.719 7.573 5.936 17.03 11.97 9.04l27.749-36.743c2.497-3.305 1.84-8.009-1.465-10.505z"/><path d="m161.528 90.145c-3.305-2.496-8.009-1.84-10.505 1.465l-27.749 36.743c-5.72 7.573 5.936 17.03 11.97 9.04l27.749-36.743c2.496-3.305 1.84-8.008-1.465-10.505z"/><path d="m441.021 507.327c.791-1.189 1.253-2.717 1.253-4.148v-353.272c0-6.328-7.143-8.3-12.112-6.076-3.444-17.219-16.564-30.986-33.431-35.365.495-13.19-9.024-25.262-22.016-27.788.533-5.528-.064-11.171-1.801-16.519-2.997-9.222-17.262-4.59-14.268 4.633 1.775 5.467 1.672 11.407-.29 16.726-2.126 5.762 3.346 11.046 8.591 9.933 7.35-1.557 14.619 4.09 14.793 11.696-11.928.901-22.596 6.377-30.241 14.687-6.506-17.404-23.299-29.832-42.945-29.832-25.272 0-45.833 20.561-45.833 45.833 0 3.292.356 6.539 1.042 9.713l-7.875 3.963-16.503-8.304c-2.121-1.067-4.622-1.066-6.743 0l-16.5 8.304-4.996-2.514-18.236-54.326c2.283-14.306 10.024-27.193 27.201-25.473 5.938-.337 8.603-3.464 7.995-9.38-4.742-17.932 22.797-25.677 28.094-7.89 1.394 4.698 6.599 9.293 11.884 5.606 10.128-7.065 24.689-5.301 32.799 4.094 3.435 3.98 10.729 2.703 13.855-1.106 4.773-5.822 11.853-9.213 19.42-9.304 9.476-.114 9.081-15.148-.18-14.999-10.074.121-19.606 3.934-26.898 10.624-10.888-8.759-26.482-11.167-39.48-5.981-6.772-11.327-21.213-16.886-33.833-13.128-12.338 3.674-20.474 14.51-21.125 26.663-10.958 1.409-21.337 7.652-27.629 16.752l-12.08-35.984c-21.919-65.285-123.398-31.362-101.437 34.053l27.307 81.339-1.895.954-16.5-8.304c-6.118-1.813-9.741.42-10.872 6.7v154.838c0 9.697 15 9.697 15 0v-142.668l9 4.529c2.121 1.067 4.623 1.067 6.743 0l16.501-8.304 16.503 8.304c2.121 1.067 4.622 1.067 6.742 0l16.501-8.304 16.502 8.304c2.121 1.067 4.622 1.067 6.742 0l16.501-8.304c5.499 2.768 10.999 5.535 16.498 8.303 2.121 1.067 4.622 1.067 6.743 0l16.5-8.304 16.503 8.304c2.121 1.067 4.623 1.066 6.742 0l16.5-8.304 16.503 8.304c2.121 1.067 4.621 1.067 6.742 0l16.503-8.304 16.505 8.304c2.121 1.067 4.621 1.067 6.742 0l9.005-4.531v333.604h-263.22v-151.073c0-9.697-15-9.697-15 0v158.574c0 4.142 3.358 7.5 7.5 7.5h357.738c2.456 0 4.906-1.275 6.246-3.352zm-264.62-355.816-16.502-8.304c-2.121-1.067-4.622-1.067-6.742 0l-16.501 8.304-16.503-8.304c-2.121-1.067-4.622-1.067-6.742 0l-1.071.539-26.624-79.301c-15.773-46.984 57.278-71.33 72.997-24.506l34.608 103.088c-.139.06-.281.112-.418.18zm186.36 10.565 9.006 4.531c2.137 1.076 4.608 1.003 6.747-.002l8.917-4.466v298.266l-24.669 24.668v-322.997zm39.845.063 8.03 4.021c2.328 1.396 5.138 1.703 7.634.446l9.005-4.531v322.997l-24.668-24.668v-298.265zm-17.383-40.138c15.948 0 29.81 13.04 30.771 28.957l-1.099.553-15.776-7.936c-2.406-1.525-5.773-1.536-8.185-.011l-15.796 7.947c-5.695-2.865-18.48-8.962-18.6-8.982-.117-.02-.233-.047-.351-.062 4.268-11.916 15.67-20.466 29.036-20.466zm-66.343 21.206c-2.121-1.067-4.621-1.067-6.742 0l-16.503 8.304-16.503-8.304c-.326-.164-.664-.294-1.006-.408-.263-1.631-.404-3.288-.404-4.964 0-17.001 13.832-30.833 30.833-30.833s30.833 13.832 30.833 30.833c0 4.557-1.014 9.055-2.937 13.139l-1.067.537zm76.138 330.822 21.65 21.65h-43.3z"/><path d="m136.64 339.542c2.305 44.685 34.039 86.429 71.016 109.878 2.363 1.498 5.314 1.533 7.656.224 99.176-55.465 90.056-175.138.754-230.034-2.363-1.452-5.484-1.455-7.849-.004-40.051 24.567-74.171 71.5-71.577 119.936zm26.85-51.028 40.94 34.367-.101 47.354-52.477-44.051c1.248-13.827 5.662-26.462 11.638-37.67zm105.141 20.532c1.708 5.987 2.856 12.129 3.367 18.342l-52.669 43.046.102-47.58 41.223-33.691c3.211 6.2 5.958 12.837 7.977 19.883zm-114.525 46.482c-.751-3.089-1.353-6.217-1.785-9.367l51.967 43.623-.083 38.381c-15.401-12.622-41.758-38.43-50.099-72.637zm50.501-114.821-.134 62.624-33.047-27.741c10.895-15.638 23.998-27.564 33.181-34.883zm35.917 169.285c-7.638 8.221-15.333 14.605-21.321 19.054l.084-39.206 52.297-42.742c-2.738 22.507-13.149 43.616-31.06 62.894zm12.348-133.841-33.399 27.298.135-62.767c9.212 7.378 22.388 19.477 33.264 35.469z"/></g></g></svg>